# xmcd
#
# Track frame offsets:
#	150
#	21880
#	47800
#	68812
#	97190
#	119882
#	144170
#	177057
#	205400
#
# Disc length: 3294 seconds
#
# Revision: 1
# Processed by: cddbd v1.5.1PL0 Copyright (c) Steve Scherf et al.
# Submitted via: CDex 1.50Beta5
#
DISCID=840cdc09
DTITLE=渡辺貞夫 - NIGHT WITH STRINGS Vol.3-SADAO PLAYS PARKER-,A
DYEAR=1995
DGENRE=Fusion
TTITLE0=IF I SHOULD LOSE YOU
TTITLE1=JUST FRIENDS
TTITLE2=HAVE YOUESELF A MERRY LITTLE CHRISTMAS
TTITLE3=LAURA
TTITLE4=OUT FOR SMOKE
TTITLE5=EASY TO LOVE
TTITLE6=GYPSY,THE
TTITLE7=CYCLING
TTITLE8=OLD FOLKS
EXTD=
EXTT0=
EXTT1=
EXTT2=
EXTT3=
EXTT4=
EXTT5=
EXTT6=
EXTT7=
EXTT8=
PLAYORDER=
